<svg xmlns="http://www.w3.org/2000/svg" viewBox="0 0 600 420" width="600" height="420">
  <!-- Shoe with bow -->
  <path fill="#771E49" d="M 10 290 Q 20 280 40 275 L 200 265 L 210 255 L 220 270 L 200 280 Q 100 295 50 310 Q 20 320 10 315 Z"/>
  
  <!-- Heel -->
  <path fill="#771E49" d="M 210 255 L 220 390 L 235 390 L 235 255 Z"/>
  
  <!-- Bow top loop -->
  <path fill="#771E49" d="M 150 10 Q 180 40 190 80 Q 195 100 185 110 Q 175 120 160 110 Q 145 100 140 80 Q 135 60 140 40 Q 145 20 150 10 Z"/>
  
  <!-- Bow bottom loop -->
  <path fill="#771E49" d="M 240 10 Q 270 30 290 60 Q 300 80 295 100 Q 290 120 270 125 Q 250 130 235 115 Q 220 100 220 80 Q 220 60 230 40 Q 235 25 240 10 Z"/>
  
  <!-- Bow center knot -->
  <path fill="#771E49" d="M 185 110 Q 195 120 210 120 Q 220 120 235 115 Q 230 130 220 135 Q 210 140 195 135 Q 185 130 185 110 Z"/>
  
  <!-- Bow ribbon -->
  <path fill="#771E49" d="M 220 135 L 235 255 L 225 255 L 215 145 Z"/>
  
  <!-- "-nd" text -->
  <path fill="#1a1a1a" d="M 340 140 L 360 140 L 360 180 Q 365 175 375 175 Q 395 175 405 190 Q 410 200 410 215 L 410 305 L 390 305 L 390 220 Q 390 205 380 200 Q 375 197 370 200 Q 365 203 360 210 L 360 305 L 340 305 Z"/>
  
  <path fill="#1a1a1a" d="M 450 175 Q 470 175 485 185 Q 500 195 505 210 Q 510 225 510 245 L 510 305 L 490 305 L 490 250 Q 490 220 480 207 Q 470 195 455 195 Q 445 195 440 200 Q 430 210 430 225 L 430 305 L 490 305 L 490 325 L 410 325 L 410 175 L 430 175 L 430 185 Q 435 180 445 177 Q 450 175 450 175 Z"/>
  
  <path fill="#1a1a1a" d="M 550 175 Q 565 175 575 185 Q 585 195 585 210 L 585 280 Q 585 295 575 305 Q 565 315 550 315 Q 535 315 525 305 Q 515 295 515 280 L 515 175 L 535 175 L 535 275 Q 535 285 540 290 Q 545 295 550 295 Q 555 295 560 290 Q 565 285 565 275 L 565 210 Q 565 200 560 197 Q 555 195 550 195 Q 545 195 540 197 L 540 175 L 550 175 M 535 175 L 535 140 L 565 140 L 565 175 Z"/>
  
  <!-- "SHOES" text -->
  <text x="335" y="410" font-family="Arial, sans-serif" font-size="60" fill="#1a1a1a" letter-spacing="2">SHOES</text>
</svg>
